<?xml version="1.0" encoding="UTF-8" standalone="no"?><!-- Generator: Gravit.io --><svg xmlns="http://www.w3.org/2000/svg" xmlns:xlink="http://www.w3.org/1999/xlink" style="isolation:isolate" viewBox="0 0 900 900" width="900pt" height="900pt"><defs><clipPath id="_clipPath_8KFeWABChOHZPjlv3qodG5Gdh5XQL0vp"><rect width="900" height="900"/></clipPath></defs><g clip-path="url(#_clipPath_8KFeWABChOHZPjlv3qodG5Gdh5XQL0vp)"><path d=" M 100 0 L 800 0 C 855.192 0 900 44.808 900 100 L 900 800 C 900 855.192 855.192 900 800 900 L 100 900 C 44.808 900 0 855.192 0 800 L 0 100 C 0 44.808 44.808 0 100 0 Z " fill="rgb(240,240,240)"/><g filter="url(#kdDqDJaEg2CKHrvpe8uH99md10P5wGMh)"><ellipse vector-effect="non-scaling-stroke" cx="333.4082795767155" cy="613.2649057610629" rx="163.8819796749566" ry="196.56915692916007" fill="rgb(131,81,96)"/><g><g/><g><path d=" M 197.319 729.347 C 193.695 727.901 191.322 724.387 191.333 720.485 L 191.822 286.772 C 191.695 283.333 191.898 277.781 198.135 280.279 L 499.327 399.739 C 499.327 403.551 499.344 402.189 499.327 406.094 L 498.581 834.575 C 498.556 839.856 499.327 843.266 499.327 847.08 C 499.327 847.803 197.319 729.347 197.319 729.347 Z " fill="rgb(194,64,99)"/></g><g><path d=" M 499.327 847.08 L 799.953 729.347 C 803.577 727.901 805.951 724.387 805.939 720.485 L 805.451 286.772 C 805.521 284.88 805.139 282.733 803.742 281.6 C 802.602 280.674 800.783 280.426 797.977 281.551 L 499.327 399.739 C 499.327 404.823 499.309 402.189 499.327 406.093 L 498.692 834.575 C 498.722 841.282 499.327 843.266 499.327 847.08 Z " fill="rgb(255,135,167)"/></g></g><clipPath id="_clipPath_JKm3NdtL7EZUNqKUMUbxwXMNDvybBgMF"><path d=" M 605.296 780.619 C 615.477 784.585 627.085 784.331 637.36 779.387 L 770.435 715.353 C 784.419 708.625 793.311 694.473 793.311 678.947 L 793.311 244.76 C 793.311 229.234 784.419 215.082 770.436 208.353 L 637.36 144.318 C 623.875 137.829 608.093 139.418 596.258 148.023 C 594.567 149.252 592.957 150.624 591.446 152.137 L 336.689 384.556 L 225.722 300.323 C 215.391 292.482 200.943 293.124 191.349 301.852 L 155.758 334.227 C 144.023 344.901 144.009 363.363 155.729 374.056 L 251.963 461.852 L 155.729 549.649 C 144.009 560.341 144.023 578.803 155.758 589.478 L 191.349 621.853 C 200.943 630.58 215.391 631.223 225.722 623.381 L 336.689 539.148 L 591.446 771.568 C 595.476 775.6 600.208 778.637 605.296 780.619 Z  M 631.819 315.12 L 438.517 461.852 L 631.819 608.584 L 631.819 315.12 Z " fill-rule="evenodd" fill="rgb(255,255,255)"/></clipPath><g clip-path="url(#_clipPath_JKm3NdtL7EZUNqKUMUbxwXMNDvybBgMF)"><g><path d=" M 770.439 208.453 L 637.259 144.329 C 621.843 136.907 603.421 140.038 591.323 152.136 L 155.342 549.649 C 143.615 560.34 143.628 578.803 155.371 589.477 L 190.983 621.853 C 200.583 630.58 215.04 631.222 225.376 623.381 L 750.399 225.088 C 768.013 211.726 793.311 224.289 793.311 246.398 L 793.311 244.851 C 793.311 229.332 784.421 215.185 770.439 208.453 Z " fill="rgb(0,101,169)"/><g filter="url(#13aBLSZQuIe8JB8S1BvsMhBDDUYJ10iW)"><path d=" M 770.439 715.251 L 637.259 779.374 C 621.843 786.798 603.421 783.666 591.323 771.568 L 155.342 374.056 C 143.615 363.363 143.628 344.901 155.371 334.226 L 190.983 301.851 C 200.583 293.124 215.04 292.481 225.376 300.322 L 750.399 698.615 C 768.013 711.978 793.311 699.415 793.311 677.307 L 793.311 678.853 C 793.311 694.371 784.421 708.518 770.439 715.251 Z " fill="rgb(0,122,204)"/></g><defs><filter id="13aBLSZQuIe8JB8S1BvsMhBDDUYJ10iW" x="-200%" y="-200%" width="400%" height="400%" filterUnits="objectBoundingBox" color-interpolation-filters="sRGB"><feGaussianBlur xmlns="http://www.w3.org/2000/svg" in="SourceGraphic" stdDeviation="4.16667"/><feOffset xmlns="http://www.w3.org/2000/svg" dx="0" dy="0" result="pf_100_offsetBlur"/><feFlood xmlns="http://www.w3.org/2000/svg" flood-color="#000000" flood-opacity="0"/><feComposite xmlns="http://www.w3.org/2000/svg" in2="pf_100_offsetBlur" operator="in" result="pf_100_dropShadow"/><feBlend xmlns="http://www.w3.org/2000/svg" in="SourceGraphic" in2="pf_100_dropShadow" mode="normal"/></filter></defs><g filter="url(#Gas8ljuDNorAJIBdCL9WdzcKWgjwOD3M)"><path d=" M 637.265 779.386 C 621.845 786.804 603.422 783.666 591.323 771.567 C 606.23 786.475 631.72 775.916 631.72 754.834 L 631.72 168.869 C 631.72 147.786 606.23 137.228 591.323 152.136 C 603.422 140.037 621.845 136.901 637.265 144.317 L 770.422 208.353 C 784.413 215.081 793.311 229.233 793.311 244.759 L 793.311 678.946 C 793.311 694.472 784.413 708.624 770.421 715.353 L 637.265 779.386 Z " fill="rgb(31,156,240)"/></g><defs><filter id="Gas8ljuDNorAJIBdCL9WdzcKWgjwOD3M" x="-200%" y="-200%" width="400%" height="400%" filterUnits="objectBoundingBox" color-interpolation-filters="sRGB"><feGaussianBlur xmlns="http://www.w3.org/2000/svg" in="SourceGraphic" stdDeviation="4.16667"/><feOffset xmlns="http://www.w3.org/2000/svg" dx="0" dy="0" result="pf_100_offsetBlur"/><feFlood xmlns="http://www.w3.org/2000/svg" flood-color="#000000" flood-opacity="0"/><feComposite xmlns="http://www.w3.org/2000/svg" in2="pf_100_offsetBlur" operator="in" result="pf_100_dropShadow"/><feBlend xmlns="http://www.w3.org/2000/svg" in="SourceGraphic" in2="pf_100_dropShadow" mode="normal"/></filter></defs><g style="opacity:0.25;"><g opacity="0.25"><linearGradient id="_lgradient_6" x1="0.4999999099695713" y1="-5.699666713425422e-9" x2="0.4999999099695711" y2="1.0000004701880159" gradientTransform="matrix(646.363,0,0,643.031,146.555,140.337)" gradientUnits="userSpaceOnUse"><stop offset="0%" stop-opacity="1" style="stop-color:rgb(255,255,255)"/><stop offset="100%" stop-opacity="0" style="stop-color:rgb(255,255,255)"/></linearGradient><path d=" M 604.903 780.619 C 615.084 784.585 626.692 784.331 636.967 779.387 L 770.042 715.353 C 784.026 708.625 792.918 694.473 792.918 678.946 L 792.918 244.76 C 792.918 229.233 784.026 215.081 770.043 208.353 L 636.967 144.317 C 623.483 137.829 607.7 139.418 595.865 148.022 C 594.174 149.251 592.564 150.624 591.053 152.136 L 336.296 384.556 L 225.329 300.323 C 214.999 292.481 200.55 293.124 190.956 301.851 L 155.365 334.226 C 143.63 344.901 143.617 363.363 155.336 374.056 L 251.57 461.852 L 155.336 549.649 C 143.617 560.341 143.63 578.803 155.365 589.477 L 190.956 621.853 C 200.55 630.58 214.999 631.222 225.329 623.381 L 336.296 539.148 L 591.053 771.568 C 595.083 775.6 599.815 778.637 604.903 780.619 Z  M 631.426 315.12 L 438.124 461.852 L 631.426 608.584 L 631.426 315.12 Z " fill-rule="evenodd" fill="url(#_lgradient_6)"/></g></g></g></g><g><g><path d=" M 353.308 124.69 C 386.515 84.841 406.353 82.411 406.657 82.559 C 417.807 83.903 419.237 93.908 419.237 93.908 L 412.09 115.347 L 397.136 155.243 C 381.493 152.635 336.695 149.598 333.376 151.257 L 353.308 124.69 Z " fill="rgb(130,81,97)"/></g><g><path d=" M 401.122 145.944 C 401.122 145.944 402.45 141.958 405.106 133.989 C 405.286 133.452 365.256 127.348 338.691 140.63 C 338.691 140.63 378.54 137.974 401.122 145.944 Z " fill="rgb(86,54,66)"/></g><g><path d=" M 342.675 137.974 L 349.464 66.518 C 347.989 54.29 340.019 48.976 327.282 56.165 C 325.459 57.193 323.207 58.779 321.332 60.267 C 275.781 96.401 268.146 158.266 266.885 188.352 C 266.906 189.466 266.871 195.321 266.824 196.42 C 265.633 258.852 348.801 305.226 371.898 327.925 C 367.11 319.003 331.305 288.907 326.735 266.821 C 323.225 249.857 326.775 236.114 332.297 225.731 C 339.318 212.534 351.057 202.452 364.913 196.839 C 400.79 182.303 435.996 184.743 466.209 189.779 C 512.8 197.543 549.304 216.657 551.148 217.634 C 551.198 217.66 551.222 217.674 551.222 217.674 C 551.188 217.657 553.277 209.827 551.222 205.719 C 548.565 200.405 542.661 198.044 541.747 197.557 C 527.019 189.738 461.462 154.694 404.309 142.511 C 407.763 143.287 373.226 135.316 342.675 137.974 Z " fill="rgb(130,81,97)"/></g><g><path d=" M 474.179 201.734 C 443.967 196.698 412.966 196.754 377.089 211.29 C 363.235 216.903 350.902 228.645 343.881 241.841 C 338.358 252.224 336.034 262.836 340.018 282.762 C 343.188 298.607 350.645 314.641 357.288 325.268 C 384.527 347.892 394.123 344.971 425.031 363.79 C 415.752 318.853 426.057 255.733 532.582 230.433 C 532.687 230.408 541.293 228.546 541.633 228.401 C 546.37 226.393 549.663 222.261 551.172 217.647 C 550.123 217.088 521.311 209.589 474.179 201.734 Z " fill="rgb(196,173,181)"/></g><g><path d=" M 551.222 212.36 C 535.283 207.046 512.701 200.405 481.732 192.742 C 446.452 184.013 404.018 180.247 373.227 192.436 C 373.227 192.436 302.826 212.36 326.735 285.418 L 330.721 301.357 C 330.721 301.357 338.645 301.354 347.353 307.513 C 345.972 303.305 340.824 287.04 339.969 282.747 C 335.997 262.81 340.008 252.022 345.513 241.634 C 352.509 228.429 364.21 218.34 378.018 212.724 C 386.378 209.323 394.876 206.711 403.373 204.767 C 408.553 203.582 413.808 202.792 419.105 202.372 C 445.469 200.275 479.963 200.305 548.566 217.673 L 548.751 217.114 C 549.893 217.443 550.463 217.621 550.463 217.621 C 550.513 217.648 551.436 212.431 551.222 212.36 Z " fill="rgb(76,49,59)"/></g></g><g><g><g><path d=" M 520.646 411.697 C 328.1 308.058 266.702 248.566 266.702 197.452 C 266.702 196.516 266.859 245.194 267.021 309.48 L 520.646 411.697 L 520.646 411.697 Z " fill="rgb(219,216,213)"/></g><g opacity="0.25"><path d=" M 273.344 310.495 L 531.039 416.761 L 531.039 415.433 L 266.702 291.899 L 266.702 307.839 C 266.702 307.839 266.825 307.884 273.344 310.495 Z " fill="rgb(54,39,43)"/></g><path d=" M 198.034 280.242 C 198.065 280.251 198.1 280.265 198.135 280.279 L 499.327 399.739 C 499.327 403.551 499.344 402.189 499.327 406.094 L 499.149 508.241 L 198.034 280.242 L 198.034 280.242 Z " fill="rgb(194,64,99)"/></g><g><path d=" M 611.551 355.327 L 499.327 399.739 C 499.327 404.823 499.309 402.189 499.327 406.093 L 499.223 475.75 L 611.551 355.327 L 611.551 355.327 Z " fill="rgb(255,135,167)"/></g></g><g><g><g><g opacity="0.25"><path d=" M 326.375 780.252 C 326.375 780.252 357.237 796.758 376.852 755.015 C 397.101 711.918 390.135 587.645 329.801 506.186 C 329.801 506.186 370.21 708.523 272.5 758.76 L 326.375 780.252 Z " fill="rgb(54,39,43)"/></g></g><g><path d=" M 131.958 533.927 L 123.614 643.967 C 121.339 673.951 130.867 703.01 150.436 725.797 C 169.879 748.584 197.737 762.422 227.445 764.675 C 233.717 765.151 240.07 765.107 246.448 764.526 C 300.129 759.627 343.859 713.104 348.166 656.311 L 352.185 603.307 C 357.899 527.963 320.087 457.979 255.854 425.02 C 203.035 397.898 149.087 405.032 95.389 446.168 C 120.631 467.821 134.486 500.586 131.958 533.927 Z " fill="rgb(31,39,40)"/></g><g><path d=" M 223.493 725.797 C 203.925 703.01 194.398 673.95 196.671 643.966 L 205.016 533.927 C 207.544 500.585 193.69 467.82 168.448 446.168 C 188.397 430.885 208.381 420.305 228.329 414.421 C 183.935 401.193 138.91 411.809 94.061 446.168 C 119.303 467.82 133.158 500.585 130.629 533.927 L 122.285 643.966 C 120.011 673.95 129.538 703.01 149.107 725.797 C 168.551 748.583 196.409 762.423 226.117 764.676 C 232.388 765.151 238.741 765.108 245.12 764.525 C 254.237 763.693 263.056 761.635 271.455 758.555 C 253.042 752.087 236.407 740.93 223.493 725.797 Z " fill="rgb(47,57,61)"/></g></g></g><path d=" M 382.666 419.405 L 336.689 384.556 L 225.722 300.323 C 215.391 292.482 200.943 293.124 191.349 301.852 L 155.758 334.227 C 148.588 340.748 145.794 350.177 147.393 358.962" fill="rgb(9,126,207)"/><clipPath id="_clipPath_BuK0cyYH2MX3wgqKuwXGqqTfRYRJD9jI"><path d=" M 382.666 419.405 L 336.689 384.556 L 225.722 300.323 C 215.391 292.482 200.943 293.124 191.349 301.852 L 155.758 334.227 C 148.588 340.748 145.794 350.177 147.393 358.962" fill="rgb(9,126,207)"/></clipPath><g clip-path="url(#_clipPath_BuK0cyYH2MX3wgqKuwXGqqTfRYRJD9jI)"><g><path d=" M 770.439 208.453 L 637.259 144.329 C 621.843 136.907 603.421 140.038 591.323 152.136 L 155.342 549.649 C 143.615 560.34 143.628 578.803 155.371 589.477 L 190.983 621.853 C 200.583 630.58 215.04 631.222 225.376 623.381 L 750.399 225.088 C 768.013 211.726 793.311 224.289 793.311 246.398 L 793.311 244.851 C 793.311 229.332 784.421 215.185 770.439 208.453 Z " fill="rgb(0,101,169)"/><g filter="url(#BfmWizOoOk0MDieODwojwrsV3c3NWulO)"><path d=" M 770.439 715.251 L 637.259 779.374 C 621.843 786.798 603.421 783.666 591.323 771.568 L 155.342 374.056 C 143.615 363.363 143.628 344.901 155.371 334.226 L 190.983 301.851 C 200.583 293.124 215.04 292.481 225.376 300.322 L 750.399 698.615 C 768.013 711.978 793.311 699.415 793.311 677.307 L 793.311 678.853 C 793.311 694.371 784.421 708.518 770.439 715.251 Z " fill="rgb(0,122,204)"/></g><defs><filter id="BfmWizOoOk0MDieODwojwrsV3c3NWulO" x="-200%" y="-200%" width="400%" height="400%" filterUnits="objectBoundingBox" color-interpolation-filters="sRGB"><feGaussianBlur xmlns="http://www.w3.org/2000/svg" in="SourceGraphic" stdDeviation="4.16667"/><feOffset xmlns="http://www.w3.org/2000/svg" dx="0" dy="0" result="pf_100_offsetBlur"/><feFlood xmlns="http://www.w3.org/2000/svg" flood-color="#000000" flood-opacity="0"/><feComposite xmlns="http://www.w3.org/2000/svg" in2="pf_100_offsetBlur" operator="in" result="pf_100_dropShadow"/><feBlend xmlns="http://www.w3.org/2000/svg" in="SourceGraphic" in2="pf_100_dropShadow" mode="normal"/></filter></defs><g style="opacity:0.25;"><g opacity="0.25"><linearGradient id="_lgradient_7" x1="0.4999999099695713" y1="-5.699666713425422e-9" x2="0.4999999099695711" y2="1.0000004701880159" gradientTransform="matrix(646.363,0,0,643.031,146.555,140.337)" gradientUnits="userSpaceOnUse"><stop offset="0%" stop-opacity="1" style="stop-color:rgb(255,255,255)"/><stop offset="100%" stop-opacity="0" style="stop-color:rgb(255,255,255)"/></linearGradient><path d=" M 604.903 780.619 C 615.084 784.585 626.692 784.331 636.967 779.387 L 770.042 715.354 C 784.026 708.625 792.918 694.473 792.918 678.946 L 792.918 244.76 C 792.918 229.233 784.026 215.081 770.043 208.353 L 636.967 144.317 C 623.483 137.829 607.7 139.418 595.865 148.022 C 594.174 149.251 592.564 150.624 591.053 152.136 L 336.296 384.556 L 225.329 300.323 C 214.999 292.481 200.55 293.124 190.956 301.851 L 155.365 334.226 C 143.63 344.901 143.617 363.363 155.336 374.056 L 251.57 461.852 L 155.336 549.649 C 143.617 560.341 143.63 578.803 155.365 589.477 L 190.956 621.853 C 200.55 630.58 214.999 631.222 225.329 623.381 L 336.296 539.148 L 591.053 771.568 C 595.083 775.6 599.815 778.637 604.903 780.619 Z  M 631.426 315.12 L 438.124 461.852 L 631.426 608.584 L 631.426 315.12 Z " fill-rule="evenodd" fill="url(#_lgradient_7)"/></g></g></g></g></g><defs><filter id="kdDqDJaEg2CKHrvpe8uH99md10P5wGMh" x="-200%" y="-200%" width="400%" height="400%" filterUnits="objectBoundingBox" color-interpolation-filters="sRGB"><feGaussianBlur xmlns="http://www.w3.org/2000/svg" in="SourceGraphic" stdDeviation="6.440413594258542"/><feOffset xmlns="http://www.w3.org/2000/svg" dx="0" dy="0" result="pf_100_offsetBlur"/><feFlood xmlns="http://www.w3.org/2000/svg" flood-color="#000000" flood-opacity="0.39"/><feComposite xmlns="http://www.w3.org/2000/svg" in2="pf_100_offsetBlur" operator="in" result="pf_100_dropShadow"/><feBlend xmlns="http://www.w3.org/2000/svg" in="SourceGraphic" in2="pf_100_dropShadow" mode="normal"/></filter></defs></g></svg>