<?xml version="1.0" encoding="UTF-8" standalone="no"?><!-- Generator: Gravit.io --><svg xmlns="http://www.w3.org/2000/svg" xmlns:xlink="http://www.w3.org/1999/xlink" style="isolation:isolate" viewBox="0 0 900 900" width="900pt" height="900pt"><defs><clipPath id="_clipPath_ap9R2BVKOREFni5WkpCKAlHxxoAqfHQL"><rect width="900" height="900"/></clipPath></defs><g clip-path="url(#_clipPath_ap9R2BVKOREFni5WkpCKAlHxxoAqfHQL)"><path d=" M 100 0 L 800 0 C 855.192 0 900 44.808 900 100 L 900 800 C 900 855.192 855.192 900 800 900 L 100 900 C 44.808 900 0 855.192 0 800 L 0 100 C 0 44.808 44.808 0 100 0 Z " fill="rgb(240,240,240)"/><g filter="url(#SgngVMVcM0vu4ZCb9ZFBMTcjgPuTyB6i)"><ellipse vector-effect="non-scaling-stroke" cx="319.82795050063146" cy="590.366039836917" rx="150.30165059887258" ry="196.56915692916007" fill="rgb(131,81,96)"/><g><g><g><clipPath id="_clipPath_Jkj6YakDEmfnB2Zt4nokVRXYOj5tVyho"><path d=" M 274.57 278.953 L 538.908 278.953 L 538.908 404.682 L 274.57 404.682 L 274.57 278.953 Z " fill="rgb(255,255,255)"/></clipPath><g clip-path="url(#_clipPath_Jkj6YakDEmfnB2Zt4nokVRXYOj5tVyho)"><g style="opacity:0.25;"><g style="opacity:0.25;"><g opacity="0.25"><path d=" M 281.212 297.549 L 538.908 403.815 L 538.908 402.487 L 274.57 278.953 L 274.57 294.893 C 274.57 294.893 274.693 294.938 281.212 297.549 Z " fill="rgb(54,39,43)"/></g></g></g></g></g></g><g><path d=" M 197.319 706.448 C 193.695 705.002 191.322 701.488 191.333 697.586 L 191.822 263.873 C 191.695 260.434 191.898 254.882 198.135 257.38 L 499.327 376.84 C 499.327 380.652 499.344 379.29 499.327 383.195 L 498.581 811.676 C 498.556 816.957 499.327 820.368 499.327 824.181 C 499.327 824.904 197.319 706.448 197.319 706.448 Z " fill="rgb(194,64,99)"/></g><g><path d=" M 499.327 824.181 L 799.953 706.448 C 803.577 705.002 805.951 701.488 805.939 697.586 L 805.451 263.873 C 805.521 261.981 805.139 259.834 803.742 258.701 C 802.602 257.775 800.783 257.527 797.977 258.652 L 499.327 376.84 C 499.327 381.924 499.309 379.29 499.327 383.195 L 498.692 811.676 C 498.722 818.384 499.327 820.367 499.327 824.181 Z " fill="rgb(255,135,167)"/></g></g><clipPath id="_clipPath_OHmHDGZUPluNk3aTiJtmCzBzxXxLLRaa"><path d=" M 605.296 757.721 C 615.477 761.687 627.085 761.433 637.36 756.488 L 770.435 692.455 C 784.419 685.726 793.311 671.574 793.311 656.048 L 793.311 221.861 C 793.311 206.335 784.419 192.183 770.436 185.454 L 637.36 121.419 C 623.875 114.93 608.093 116.519 596.258 125.124 C 594.567 126.353 592.957 127.725 591.446 129.238 L 336.689 361.658 L 225.722 277.424 C 215.391 269.583 200.943 270.226 191.349 278.953 L 155.758 311.328 C 144.023 322.003 144.009 340.465 155.729 351.157 L 251.963 438.954 L 155.729 526.75 C 144.009 537.442 144.023 555.905 155.758 566.579 L 191.349 598.954 C 200.943 607.681 215.391 608.324 225.722 600.482 L 336.689 516.25 L 591.446 748.669 C 595.476 752.702 600.208 755.738 605.296 757.721 Z  M 631.819 292.221 L 438.517 438.954 L 631.819 585.685 L 631.819 292.221 Z " fill-rule="evenodd" fill="rgb(255,255,255)"/></clipPath><g clip-path="url(#_clipPath_OHmHDGZUPluNk3aTiJtmCzBzxXxLLRaa)"><g><path d=" M 770.439 185.554 L 637.259 121.43 C 621.843 114.008 603.421 117.139 591.323 129.237 L 155.342 526.75 C 143.615 537.441 143.628 555.904 155.371 566.579 L 190.983 598.954 C 200.583 607.681 215.04 608.323 225.376 600.482 L 750.399 202.189 C 768.013 188.827 793.311 201.39 793.311 223.499 L 793.311 221.953 C 793.311 206.433 784.421 192.286 770.439 185.554 Z " fill="rgb(0,101,169)"/><g filter="url(#L6AIN0ch1B07lia93eQj1ip7MP7yzGVU)"><path d=" M 770.439 692.352 L 637.259 756.476 C 621.843 763.899 603.421 760.767 591.323 748.669 L 155.342 351.157 C 143.615 340.465 143.628 322.002 155.371 311.327 L 190.983 278.952 C 200.583 270.225 215.04 269.582 225.376 277.423 L 750.399 675.716 C 768.013 689.079 793.311 676.516 793.311 654.408 L 793.311 655.954 C 793.311 671.472 784.421 685.619 770.439 692.352 Z " fill="rgb(0,122,204)"/></g><defs><filter id="L6AIN0ch1B07lia93eQj1ip7MP7yzGVU" x="-200%" y="-200%" width="400%" height="400%" filterUnits="objectBoundingBox" color-interpolation-filters="sRGB"><feGaussianBlur xmlns="http://www.w3.org/2000/svg" in="SourceGraphic" stdDeviation="4.16667"/><feOffset xmlns="http://www.w3.org/2000/svg" dx="0" dy="0" result="pf_100_offsetBlur"/><feFlood xmlns="http://www.w3.org/2000/svg" flood-color="#000000" flood-opacity="0"/><feComposite xmlns="http://www.w3.org/2000/svg" in2="pf_100_offsetBlur" operator="in" result="pf_100_dropShadow"/><feBlend xmlns="http://www.w3.org/2000/svg" in="SourceGraphic" in2="pf_100_dropShadow" mode="normal"/></filter></defs><g filter="url(#rnx4sVoRZTzmLWW8jjUjcli2X2E5w1Cl)"><path d=" M 637.265 756.487 C 621.845 763.906 603.422 760.767 591.323 748.668 C 606.23 763.576 631.72 753.018 631.72 731.935 L 631.72 145.97 C 631.72 124.888 606.23 114.329 591.323 129.237 C 603.422 117.138 621.845 114.002 637.265 121.418 L 770.422 185.454 C 784.413 192.182 793.311 206.335 793.311 221.86 L 793.311 656.048 C 793.311 671.573 784.413 685.725 770.421 692.454 L 637.265 756.487 Z " fill="rgb(31,156,240)"/></g><defs><filter id="rnx4sVoRZTzmLWW8jjUjcli2X2E5w1Cl" x="-200%" y="-200%" width="400%" height="400%" filterUnits="objectBoundingBox" color-interpolation-filters="sRGB"><feGaussianBlur xmlns="http://www.w3.org/2000/svg" in="SourceGraphic" stdDeviation="4.16667"/><feOffset xmlns="http://www.w3.org/2000/svg" dx="0" dy="0" result="pf_100_offsetBlur"/><feFlood xmlns="http://www.w3.org/2000/svg" flood-color="#000000" flood-opacity="0"/><feComposite xmlns="http://www.w3.org/2000/svg" in2="pf_100_offsetBlur" operator="in" result="pf_100_dropShadow"/><feBlend xmlns="http://www.w3.org/2000/svg" in="SourceGraphic" in2="pf_100_dropShadow" mode="normal"/></filter></defs><g style="opacity:0.25;"><g opacity="0.25"><linearGradient id="_lgradient_2" x1="0.4999999099695713" y1="-5.699666713425422e-9" x2="0.4999999099695711" y2="1.0000004701880159" gradientTransform="matrix(646.363,0,0,643.031,146.555,117.438)" gradientUnits="userSpaceOnUse"><stop offset="0%" stop-opacity="1" style="stop-color:rgb(255,255,255)"/><stop offset="100%" stop-opacity="0" style="stop-color:rgb(255,255,255)"/></linearGradient><path d=" M 604.903 757.721 C 615.084 761.686 626.692 761.432 636.967 756.488 L 770.042 692.455 C 784.026 685.726 792.918 671.574 792.918 656.048 L 792.918 221.861 C 792.918 206.335 784.026 192.182 770.043 185.454 L 636.967 121.419 C 623.483 114.93 607.7 116.519 595.865 125.123 C 594.174 126.353 592.564 127.725 591.053 129.237 L 336.296 361.657 L 225.329 277.424 C 214.999 269.582 200.55 270.226 190.956 278.952 L 155.365 311.327 C 143.63 322.003 143.617 340.465 155.336 351.157 L 251.57 438.953 L 155.336 526.75 C 143.617 537.442 143.63 555.904 155.365 566.579 L 190.956 598.954 C 200.55 607.681 214.999 608.323 225.329 600.482 L 336.296 516.249 L 591.053 748.669 C 595.083 752.701 599.815 755.738 604.903 757.721 Z  M 631.426 292.221 L 438.124 438.953 L 631.426 585.685 L 631.426 292.221 Z " fill-rule="evenodd" fill="url(#_lgradient_2)"/></g></g></g></g><g><g><path d=" M 298.47 147.589 C 331.678 107.739 351.515 105.309 351.819 105.458 C 362.97 106.801 364.399 116.807 364.399 116.807 L 357.252 138.246 L 342.299 178.142 C 326.655 175.533 281.857 172.497 278.539 174.156 L 298.47 147.589 Z " fill="rgb(130,81,97)"/></g><g><path d=" M 346.284 168.843 C 346.284 168.843 347.612 164.857 350.268 156.888 C 350.448 156.351 310.419 150.247 283.853 163.529 C 283.853 163.529 323.702 160.872 346.284 168.843 Z " fill="rgb(86,54,66)"/></g><g><path d=" M 287.837 160.873 L 294.627 89.417 C 293.151 77.189 285.181 71.874 272.444 79.063 C 270.621 80.092 268.369 81.678 266.495 83.166 C 220.943 119.3 213.308 181.164 212.048 211.251 C 212.068 212.365 212.033 218.219 211.986 219.319 C 210.795 281.751 293.963 328.125 317.06 350.823 C 312.273 341.902 276.468 311.806 271.898 289.72 C 268.388 272.755 271.937 259.013 277.46 248.63 C 284.48 235.433 296.22 225.351 310.075 219.738 C 345.952 205.202 381.159 207.642 411.372 212.678 C 457.962 220.442 494.466 239.556 496.311 240.533 C 496.36 240.559 496.384 240.573 496.384 240.573 C 496.35 240.556 498.44 232.726 496.384 228.617 C 493.728 223.303 487.824 220.943 486.91 220.456 C 472.181 212.637 406.625 177.593 349.471 165.41 C 352.926 166.186 318.389 158.215 287.837 160.873 Z " fill="rgb(130,81,97)"/></g><g><path d=" M 419.342 224.633 C 389.129 219.597 358.129 219.653 322.251 234.189 C 308.397 239.802 296.064 251.544 289.044 264.74 C 283.52 275.123 281.196 285.735 285.181 305.661 C 288.35 321.506 295.808 337.54 302.45 348.167 C 329.69 370.791 339.286 367.87 370.193 386.688 C 360.914 341.752 371.219 278.632 477.744 253.332 C 477.849 253.307 486.455 251.445 486.795 251.3 C 491.532 249.292 494.826 245.16 496.335 240.546 C 495.286 239.987 466.473 232.487 419.342 224.633 Z " fill="rgb(196,173,181)"/></g><g><path d=" M 496.385 235.259 C 480.445 229.945 457.863 223.304 426.894 215.641 C 391.614 206.912 349.18 203.146 318.389 215.335 C 318.389 215.335 247.988 235.259 271.897 308.317 L 275.883 324.256 C 275.883 324.256 283.808 324.253 292.515 330.412 C 291.134 326.203 285.986 309.939 285.131 305.646 C 281.16 285.709 285.171 274.921 290.675 264.533 C 297.671 251.328 309.372 241.239 323.181 235.623 C 331.54 232.222 340.038 229.61 348.536 227.666 C 353.715 226.481 358.97 225.691 364.267 225.27 C 390.631 223.174 425.125 223.204 493.728 240.572 L 493.914 240.013 C 495.055 240.342 495.625 240.52 495.625 240.52 C 495.675 240.547 496.598 235.33 496.385 235.259 Z " fill="rgb(76,49,59)"/></g></g><g><g><g><path d=" M 520.646 388.798 C 328.1 285.16 266.702 225.667 266.702 174.553 C 266.702 173.617 266.859 222.296 267.021 286.582 L 520.646 388.798 L 520.646 388.798 Z " fill="rgb(219,216,213)"/></g><path d=" M 198.034 257.343 C 198.065 257.352 198.1 257.366 198.135 257.38 L 499.327 376.84 C 499.327 380.652 499.344 379.29 499.327 383.195 L 499.149 485.342 L 198.034 257.343 L 198.034 257.343 Z " fill="rgb(194,64,99)"/></g><g><path d=" M 611.551 332.428 L 499.327 376.84 C 499.327 381.924 499.309 379.29 499.327 383.195 L 499.223 452.851 L 611.551 332.428 L 611.551 332.428 Z " fill="rgb(255,135,167)"/></g></g><g><g><g><g><clipPath id="_clipPath_OOeTBAhmQoYbhngnSgrx3nctgF9fVHY4"><path d=" M 272.5 509.65 L 387.074 509.65 L 387.074 786.935 L 272.5 786.935 L 272.5 509.65 Z " fill="rgb(255,255,255)"/></clipPath><g clip-path="url(#_clipPath_OOeTBAhmQoYbhngnSgrx3nctgF9fVHY4)"><g style="opacity:0.25;"><g style="opacity:0.25;"><g opacity="0.25"><path d=" M 326.375 783.716 C 326.375 783.716 357.237 800.222 376.852 758.479 C 397.101 715.381 390.135 591.109 329.801 509.65 C 329.801 509.65 370.21 711.987 272.5 762.224 L 326.375 783.716 Z " fill="rgb(54,39,43)"/></g></g></g></g></g></g><g><path d=" M 131.958 537.39 L 123.614 647.431 C 121.339 677.415 130.867 706.474 150.436 729.26 C 169.879 752.047 197.737 765.886 227.445 768.139 C 233.717 768.614 240.07 768.571 246.448 767.989 C 300.129 763.091 343.859 716.567 348.166 659.775 L 352.185 606.77 C 357.899 531.426 320.087 461.443 255.854 428.483 C 203.035 401.362 149.087 408.495 95.389 449.631 C 120.631 471.285 134.486 504.049 131.958 537.39 Z " fill="rgb(31,39,40)"/></g><g><path d=" M 223.493 729.261 C 203.925 706.473 194.398 677.414 196.671 647.43 L 205.016 537.391 C 207.544 504.048 193.69 471.284 168.448 449.632 C 188.397 434.348 208.381 423.768 228.329 417.885 C 183.935 404.657 138.91 415.273 94.061 449.632 C 119.303 471.284 133.158 504.048 130.629 537.391 L 122.285 647.43 C 120.011 677.414 129.538 706.473 149.107 729.261 C 168.551 752.046 196.409 765.886 226.117 768.139 C 232.388 768.615 238.741 768.571 245.12 767.989 C 254.237 767.156 263.056 765.099 271.455 762.018 C 253.042 755.551 236.407 744.394 223.493 729.261 Z " fill="rgb(47,57,61)"/></g></g></g><path d=" M 382.666 396.506 L 336.689 361.658 L 225.722 277.424 C 215.391 269.583 200.943 270.226 191.349 278.953 L 155.758 311.328 C 148.588 317.849 145.794 327.278 147.393 336.063" fill="rgb(9,126,207)"/><clipPath id="_clipPath_Um8LIFv1LIRcpq05BOJPtxTAh1hiCE6p"><path d=" M 382.666 396.506 L 336.689 361.658 L 225.722 277.424 C 215.391 269.583 200.943 270.226 191.349 278.953 L 155.758 311.328 C 148.588 317.849 145.794 327.278 147.393 336.063" fill="rgb(9,126,207)"/></clipPath><g clip-path="url(#_clipPath_Um8LIFv1LIRcpq05BOJPtxTAh1hiCE6p)"><g><path d=" M 770.439 185.554 L 637.259 121.43 C 621.843 114.008 603.421 117.139 591.323 129.237 L 155.342 526.75 C 143.615 537.441 143.628 555.904 155.371 566.579 L 190.983 598.954 C 200.583 607.681 215.04 608.323 225.376 600.482 L 750.399 202.189 C 768.013 188.827 793.311 201.39 793.311 223.499 L 793.311 221.953 C 793.311 206.433 784.421 192.286 770.439 185.554 Z " fill="rgb(0,101,169)"/><g filter="url(#sVntqTw2TeadJ4KY2SWdievjBdnNrggj)"><path d=" M 770.439 692.352 L 637.259 756.476 C 621.843 763.899 603.421 760.767 591.323 748.669 L 155.342 351.157 C 143.615 340.465 143.628 322.002 155.371 311.327 L 190.983 278.952 C 200.583 270.225 215.04 269.582 225.376 277.423 L 750.399 675.716 C 768.013 689.079 793.311 676.516 793.311 654.408 L 793.311 655.954 C 793.311 671.472 784.421 685.619 770.439 692.352 Z " fill="rgb(0,122,204)"/></g><defs><filter id="sVntqTw2TeadJ4KY2SWdievjBdnNrggj" x="-200%" y="-200%" width="400%" height="400%" filterUnits="objectBoundingBox" color-interpolation-filters="sRGB"><feGaussianBlur xmlns="http://www.w3.org/2000/svg" in="SourceGraphic" stdDeviation="4.16667"/><feOffset xmlns="http://www.w3.org/2000/svg" dx="0" dy="0" result="pf_100_offsetBlur"/><feFlood xmlns="http://www.w3.org/2000/svg" flood-color="#000000" flood-opacity="0"/><feComposite xmlns="http://www.w3.org/2000/svg" in2="pf_100_offsetBlur" operator="in" result="pf_100_dropShadow"/><feBlend xmlns="http://www.w3.org/2000/svg" in="SourceGraphic" in2="pf_100_dropShadow" mode="normal"/></filter></defs><g style="opacity:0.25;"><g opacity="0.25"><linearGradient id="_lgradient_3" x1="0.4999999099695713" y1="-5.699666713425422e-9" x2="0.4999999099695711" y2="1.0000004701880159" gradientTransform="matrix(646.363,0,0,643.031,146.555,117.438)" gradientUnits="userSpaceOnUse"><stop offset="0%" stop-opacity="1" style="stop-color:rgb(255,255,255)"/><stop offset="100%" stop-opacity="0" style="stop-color:rgb(255,255,255)"/></linearGradient><path d=" M 604.903 757.721 C 615.084 761.686 626.692 761.432 636.967 756.488 L 770.042 692.455 C 784.026 685.726 792.918 671.574 792.918 656.048 L 792.918 221.861 C 792.918 206.335 784.026 192.182 770.043 185.454 L 636.967 121.419 C 623.483 114.93 607.7 116.519 595.865 125.123 C 594.174 126.353 592.564 127.725 591.053 129.237 L 336.296 361.657 L 225.329 277.424 C 214.999 269.582 200.55 270.226 190.956 278.952 L 155.365 311.327 C 143.63 322.003 143.617 340.465 155.336 351.157 L 251.57 438.953 L 155.336 526.75 C 143.617 537.442 143.63 555.904 155.365 566.579 L 190.956 598.954 C 200.55 607.681 214.999 608.323 225.329 600.482 L 336.296 516.249 L 591.053 748.669 C 595.083 752.701 599.815 755.738 604.903 757.721 Z  M 631.426 292.221 L 438.124 438.953 L 631.426 585.685 L 631.426 292.221 Z " fill-rule="evenodd" fill="url(#_lgradient_3)"/></g></g></g></g></g><defs><filter id="SgngVMVcM0vu4ZCb9ZFBMTcjgPuTyB6i" x="-200%" y="-200%" width="400%" height="400%" filterUnits="objectBoundingBox" color-interpolation-filters="sRGB"><feGaussianBlur xmlns="http://www.w3.org/2000/svg" in="SourceGraphic" stdDeviation="6.440413594258542"/><feOffset xmlns="http://www.w3.org/2000/svg" dx="0" dy="0" result="pf_100_offsetBlur"/><feFlood xmlns="http://www.w3.org/2000/svg" flood-color="#000000" flood-opacity="0.39"/><feComposite xmlns="http://www.w3.org/2000/svg" in2="pf_100_offsetBlur" operator="in" result="pf_100_dropShadow"/><feBlend xmlns="http://www.w3.org/2000/svg" in="SourceGraphic" in2="pf_100_dropShadow" mode="normal"/></filter></defs></g></svg>